<mxfile host="app.diagrams.net" agent="Mozilla/5.0 (Windows NT 10.0; Win64; x64) AppleWebKit/537.36 (KHTML, like Gecko) Chrome/134.0.0.0 Safari/537.36" version="26.1.1">
  <diagram name="Trang-1" id="IbCogmnhhpiAeHq2Ba4w">
    <mxGraphModel dx="1050" dy="522" grid="1" gridSize="10" guides="1" tooltips="1" connect="1" arrows="1" fold="1" page="1" pageScale="1" pageWidth="827" pageHeight="1169" math="0" shadow="0">
      <root>
        <mxCell id="0" />
        <mxCell id="1" parent="0" />
        <mxCell id="Rm2ag_SD7X8x3c-UpW-g-1" value="Nested Class (Lớp lồng nhau) là một lớp được khai báo bên trong một lớp khác. Nó giúp tổ chức mã nguồn tốt hơn, cải thiện encapsulation và có thể truy cập trực tiếp các thành viên của lớp bao ngoài (enclosing class), kể cả khi chúng là &lt;code data-end=&quot;334&quot; data-start=&quot;325&quot;&gt;&lt;b&gt;private&lt;/b&gt;&lt;/code&gt;" style="rounded=1;whiteSpace=wrap;html=1;" vertex="1" parent="1">
          <mxGeometry x="120" y="50" width="280" height="110" as="geometry" />
        </mxCell>
        <mxCell id="Rm2ag_SD7X8x3c-UpW-g-2" value="&lt;p data-end=&quot;429&quot; data-start=&quot;375&quot;&gt;Trong Java, Nested Class được chia thành 2 loại chính:&lt;/p&gt;&lt;ol data-end=&quot;608&quot; data-start=&quot;431&quot;&gt;&lt;li data-end=&quot;457&quot; data-start=&quot;431&quot;&gt;&lt;strong data-end=&quot;457&quot; data-start=&quot;434&quot;&gt;Static Nested Class&lt;/strong&gt;&lt;/li&gt;&lt;li data-end=&quot;608&quot; data-start=&quot;458&quot;&gt;&lt;strong data-end=&quot;476&quot; data-start=&quot;461&quot;&gt;Inner Class&lt;/strong&gt; &lt;em data-end=&quot;520&quot; data-start=&quot;477&quot;&gt;(Lớp bên trong - Non-static Nested Class)&lt;/em&gt;&lt;ul data-end=&quot;608&quot; data-start=&quot;526&quot;&gt;&lt;li data-end=&quot;550&quot; data-start=&quot;526&quot;&gt;&lt;strong data-end=&quot;550&quot; data-start=&quot;528&quot;&gt;Member Inner Class&lt;/strong&gt;&lt;/li&gt;&lt;li data-end=&quot;577&quot; data-start=&quot;554&quot;&gt;&lt;strong data-end=&quot;577&quot; data-start=&quot;556&quot;&gt;Local Inner Class&lt;/strong&gt;&lt;/li&gt;&lt;li data-end=&quot;608&quot; data-start=&quot;581&quot;&gt;&lt;strong data-end=&quot;608&quot; data-start=&quot;583&quot;&gt;Anonymous Inner Class&lt;/strong&gt;&lt;/li&gt;&lt;/ul&gt;&lt;/li&gt;&lt;/ol&gt;" style="rounded=1;whiteSpace=wrap;html=1;align=left;" vertex="1" parent="1">
          <mxGeometry x="120" y="160" width="300" height="130" as="geometry" />
        </mxCell>
        <mxCell id="Rm2ag_SD7X8x3c-UpW-g-4" value="NestedClass : có static được đặt ngay trong Class POJO&lt;br&gt;InnerClass:Non Static vẫn có access modifier&lt;div&gt;public,private,protected,final hoặc không&lt;/div&gt;&lt;div&gt;Vẫn có quyền vào instance&lt;/div&gt;&lt;div&gt;&amp;nbsp;&lt;/div&gt;" style="rounded=1;whiteSpace=wrap;html=1;" vertex="1" parent="1">
          <mxGeometry x="440" y="40" width="260" height="110" as="geometry" />
        </mxCell>
        <mxCell id="Rm2ag_SD7X8x3c-UpW-g-5" value="&lt;div&gt;&lt;li data-end=&quot;354&quot; data-start=&quot;283&quot;&gt;LocalClass chỉ có thể sử dụng bên trong phạm vi (scope) của phương thức chứa nó.&lt;/li&gt;&lt;br&gt;&lt;li data-end=&quot;489&quot; data-start=&quot;355&quot;&gt;Không thể có &lt;strong data-end=&quot;386&quot; data-start=&quot;370&quot;&gt;các modifier&lt;/strong&gt; như &lt;code data-end=&quot;399&quot; data-start=&quot;391&quot;&gt;public&lt;/code&gt;, &lt;code data-end=&quot;410&quot; data-start=&quot;401&quot;&gt;private&lt;/code&gt;, &lt;code data-end=&quot;423&quot; data-start=&quot;412&quot;&gt;protected&lt;/code&gt;, hay &lt;code data-end=&quot;437&quot; data-start=&quot;429&quot;&gt;static&lt;/code&gt; (ngoại trừ khi nằm trong một phương thức &lt;code data-end=&quot;487&quot; data-start=&quot;479&quot;&gt;static&lt;/code&gt;).&lt;/li&gt;&lt;br&gt;&lt;li data-end=&quot;586&quot; data-start=&quot;490&quot;&gt;Có thể truy cập &lt;strong data-end=&quot;538&quot; data-start=&quot;508&quot;&gt;biến local của phương thức&lt;/strong&gt;, nhưng &lt;strong data-end=&quot;585&quot; data-start=&quot;546&quot;&gt;biến đó phải là &quot;effectively final&quot;&lt;/strong&gt;.&lt;/li&gt;&lt;/div&gt;" style="rounded=1;whiteSpace=wrap;html=1;" vertex="1" parent="1">
          <mxGeometry x="440" y="160" width="260" height="180" as="geometry" />
        </mxCell>
        <mxCell id="Rm2ag_SD7X8x3c-UpW-g-6" value="&lt;p data-end=&quot;263&quot; data-start=&quot;111&quot;&gt;&lt;strong data-end=&quot;133&quot; data-start=&quot;114&quot;&gt;Anonymous Class&lt;/strong&gt; là một dạng đặc biệt của &lt;strong data-end=&quot;174&quot; data-start=&quot;159&quot;&gt;Inner Class&lt;/strong&gt; nhưng &lt;strong data-end=&quot;197&quot; data-start=&quot;181&quot;&gt;không có tên&lt;/strong&gt;. Nó được &lt;strong data-end=&quot;244&quot; data-start=&quot;207&quot;&gt;khai báo và khởi tạo ngay lập tức&lt;/strong&gt; khi cần sử dụng.&lt;/p&gt;&lt;p data-end=&quot;287&quot; data-start=&quot;265&quot;&gt;&lt;strong data-end=&quot;286&quot; data-start=&quot;268&quot;&gt;Đặc điểm chính&lt;/strong&gt;:&lt;/p&gt;&lt;ul data-end=&quot;562&quot; data-start=&quot;288&quot;&gt;&lt;li data-end=&quot;343&quot; data-start=&quot;288&quot;&gt;&lt;strong data-end=&quot;306&quot; data-start=&quot;290&quot;&gt;Không có tên&lt;/strong&gt; nên không thể tái sử dụng nhiều lần.&lt;/li&gt;&lt;li data-end=&quot;466&quot; data-start=&quot;344&quot;&gt;&lt;strong data-end=&quot;381&quot; data-start=&quot;346&quot;&gt;Phải được khởi tạo ngay tại chỗ&lt;/strong&gt; bằng cách &lt;strong data-end=&quot;421&quot; data-start=&quot;392&quot;&gt;mở rộng (extends) một lớp&lt;/strong&gt; hoặc &lt;strong data-end=&quot;465&quot; data-start=&quot;427&quot;&gt;cài đặt (implements) một interface&lt;/strong&gt;.&lt;/li&gt;&lt;li data-end=&quot;562&quot; data-start=&quot;467&quot;&gt;&lt;strong data-end=&quot;561&quot; data-start=&quot;469&quot;&gt;Thích hợp khi chỉ cần ghi đè (override) một hoặc vài phương thức của một class/interface&lt;/strong&gt;.&lt;/li&gt;&lt;/ul&gt;" style="rounded=1;whiteSpace=wrap;html=1;" vertex="1" parent="1">
          <mxGeometry x="100" y="300" width="320" height="220" as="geometry" />
        </mxCell>
      </root>
    </mxGraphModel>
  </diagram>
</mxfile>
